<mxfile host="app.diagrams.net" modified="2023-08-14T18:53:19.486Z" agent="Mozilla/5.0 (X11; Linux x86_64) AppleWebKit/537.36 (KHTML, like Gecko) Chrome/115.0.0.0 Safari/537.36" version="21.6.8" etag="fsEW2z9VO_fDXpFTdDeG" type="github">
  <diagram name="PÃ¡gina-1" id="JpiJGz8O4N7apsfz1jg4">
    <mxGraphModel>
      <root>
        <mxCell id="0" />
        <mxCell id="1" parent="0" />
      </root>
    </mxGraphModel>
  </diagram>
</mxfile>
